# xmcd
#
# Track frame offsets:
#	150
#	22914
#	49595
#	69237
#	93691
#	107590
#	135788
#	155984
#	185318
#	210755
#	234428
#	251360
#
# Disc length: 3652 seconds
#
# Revision: 0
# Processed by: cddbd v1.5.2PL0 Copyright (c) Steve Scherf et al.
# Submitted via: audiograbber 1.82.01
#
DISCID=8c0e420c
DTITLE=Inca Spirit - Ethnic Music From Alborada Selection
DYEAR=1900
DGENRE=Ethnic
TTITLE0=Toro Ara
TTITLE1=Chirapaq
TTITLE2=Anquayilu
TTITLE3=Kabra Nawi
TTITLE4=El Condor Pasa
TTITLE5=Relampago
TTITLE6=The Song Of the Sun
TTITLE7=Neyo Nayo
TTITLE8=La Puerta Del Sol
TTITLE9=Flying Condor
TTITLE10=Dos Aguas
TTITLE11=Qapaqnan
EXTD=
EXTT0=
EXTT1=
EXTT2=
EXTT3=
EXTT4=
EXTT5=
EXTT6=
EXTT7=
EXTT8=
EXTT9=
EXTT10=
EXTT11=
PLAYORDER=
